HIERARCHY
ROOT Root
{
	OFFSET 0.00000 0.00000 0.00000
	CHANNELS 6 Xposition Yposition Zposition Zrotation Xrotation Yrotation
	JOINT Hips
	{
		OFFSET 0 0 0	
		CHANNELS 3 Zrotation Xrotation Yrotation
		JOINT Spine
		{
			OFFSET 0 4 0	
			CHANNELS 3 Zrotation Xrotation Yrotation
			JOINT Spine1
			{
				OFFSET 0 19.4 0	
				CHANNELS 3 Zrotation Xrotation Yrotation
				JOINT Spine2
				{
					OFFSET 0 16.6 0	
					CHANNELS 3 Zrotation Xrotation Yrotation
					JOINT LeftCollar
					{
						OFFSET 0 10 0	
						CHANNELS 3 Zrotation Xrotation Yrotation
						JOINT LeftArm
						{
							OFFSET 15.6 -2 3	
							CHANNELS 3 Zrotation Xrotation Yrotation
							JOINT LeftForeArm
							{
								OFFSET 3.5 -27 -1	
								CHANNELS 3 Zrotation Xrotation Yrotation
								JOINT LeftHand
								{
									OFFSET 1 -27 1	
									CHANNELS 3 Zrotation Xrotation Yrotation
									End Site
									{
										OFFSET 0 -15 0
									}
								}
							}
						}
					}
					JOINT RightCollar
					{
						OFFSET 0 10 0	
						CHANNELS 3 Zrotation Xrotation Yrotation
						JOINT RightArm
						{
							OFFSET -15.6 -2 3	
							CHANNELS 3 Zrotation Xrotation Yrotation
							JOINT RightForeArm
							{
								OFFSET -3.5 -27 -1	
								CHANNELS 3 Zrotation Xrotation Yrotation
								JOINT RightHand
								{
									OFFSET -1 -27 1	
									CHANNELS 3 Zrotation Xrotation Yrotation
									End Site
									{
										OFFSET 0 -15 0
									}
								}
							}
						}
					}
					JOINT Neck
					{
						OFFSET 0 10 0	
						CHANNELS 3 Zrotation Xrotation Yrotation
						JOINT Head
						{
							OFFSET 0 12.7 3	
							CHANNELS 3 Zrotation Xrotation Yrotation
							End Site
							{
								OFFSET 0 12.7 3
							}
						}
					}
				}
			}
		}
	}
	JOINT LeftHip
	{
		OFFSET 0 0 0	
		CHANNELS 3 Zrotation Xrotation Yrotation
		JOINT LeftUpLeg
		{
			OFFSET 8.8 -6 0	
			CHANNELS 3 Zrotation Xrotation Yrotation
			JOINT LeftLeg
			{
				OFFSET 0 -39 2	
				CHANNELS 3 Zrotation Xrotation Yrotation
				JOINT LeftFoot
				{
					OFFSET 0 -43 -2	
					CHANNELS 3 Zrotation Xrotation Yrotation
					JOINT LeftFootFront
					{
						OFFSET 0 -7 8.5	
						CHANNELS 3 Zrotation Xrotation Yrotation
						End Site
						{
							OFFSET 0 -0.5 9
						}
					}
				}
				JOINT LeftHeel
				{
					OFFSET 0 -43 -2	
					CHANNELS 3 Zrotation Xrotation Yrotation
					End Site
					{
						OFFSET 0 -7.5 -5
					}
				}
			}
		}
	}
	JOINT RightHip
	{
		OFFSET 0 0 0	
		CHANNELS 3 Zrotation Xrotation Yrotation
		JOINT RightUpLeg
		{
			OFFSET -8.8 -6 0	
			CHANNELS 3 Zrotation Xrotation Yrotation
			JOINT RightLeg
			{
				OFFSET 0 -39 2	
				CHANNELS 3 Zrotation Xrotation Yrotation
				JOINT RightFoot
				{
					OFFSET 0 -43 -2	
					CHANNELS 3 Zrotation Xrotation Yrotation
					JOINT RightFootFront
					{
						OFFSET 0 -7 8.5	
						CHANNELS 3 Zrotation Xrotation Yrotation
						End Site
						{
							OFFSET 0 -0.5 9
						}
					}
				}
				JOINT RightHeel
				{
					OFFSET 0 -43 -2	
					CHANNELS 3 Zrotation Xrotation Yrotation
					End Site
					{
						OFFSET 0 -7.5 -5
					}
				}
			}
		}
	}
}
MOTION
Frames: 21
Frame Time: 0.05
0 93.623 0 -0 0 -0 -19.1 6.3825 32.922 8.4539 2.5893 -1.6835 8.4539 2.5893 -1.6835 7.0954 2.1921 -1.3886 -0 0 -0 -14.147 -4.449 24.136 -8.7813 -31.062 -10.821 71.685 5.9728 12.326 -0 0 -0 -9.2091 -22.025 3.0638 28.568 -6.0438 11.28 -4.5274 -10.995 41.194 -15.149 18.64 21.937 -15.149 18.64 21.937 -19.1 6.3825 32.922 24.964 -33.145 -0.44687 -2.5796 10.688 -6.587 -4.9006 -2.7331 -6.6592 -4.2689e-07 6.9575e-16 -1.8676e-07 -0 0 -0 -19.1 6.3825 32.922 7.9125 -25.275 -11.645 -4.5084 15.149 -1.282 7.3595 -8.1884 -4.5753 -0 0 3.5518e-07 -0 0 -0 
-0.0046488 93.492 0.015946 -0 0 -0 -19.278 5.8033 33.827 8.5697 2.4878 -1.9705 8.5697 2.4878 -1.9705 7.1921 2.11 -1.6303 -0 0 -0 -15.491 -3.1341 26.616 -10.808 -33.206 -14.324 75.511 1.9577 14.545 -0 0 -0 -9.0514 -21.373 2.3959 29.882 -6.3252 11.613 -4.1728 -10.354 39.772 -15.952 19.726 21.045 -15.952 19.726 21.045 -19.278 5.8033 33.827 25.735 -33.332 -0.27855 -2.2818 10.931 -6.9494 -5.9267 -2.6378 -7.3551 0.048983 -0.0073463 -0.021867 -0 0 -0 -19.278 5.8033 33.827 8.3786 -25.78 -12.611 -4.8793 17.2 -0.63579 6.9659 -9.6107 -4.9592 0.0051878 -0.005666 0.0002864 -0 0 -0 
-0.015292 93.324 0.05094 -0 0 -0 -19.308 5.5494 34.269 8.5936 2.5976 -1.842 8.5936 2.5976 -1.842 7.2122 2.201 -1.5212 -0 0 -0 -17.072 -2.1507 28.442 -13.789 -35.498 -18.536 78.555 -2.8216 16.296 -0 0 -0 -9.2374 -21.234 1.1703 31.511 -6.5991 12.279 -3.6847 -9.646 36.968 -16.645 20.634 19.651 -16.645 20.634 19.651 -19.308 5.5494 34.269 26.54 -33.494 0.74456 -1.8905 11.163 -7.5685 -7.0239 -2.5569 -8.0748 0.023453 0.030559 -0.0043757 -0 0 -0 -19.308 5.5494 34.269 8.7884 -26.49 -13.056 -5.3664 19.576 0.73954 6.4794 -11.28 -6.0337 0.0005062 -0.092674 0.0063863 -0 0 -0 
-0.036018 93.124 0.1164 -0 0 -0 -19.341 5.6722 34.586 8.6341 2.8946 -1.501 8.6341 2.8946 -1.501 7.2465 2.4472 -1.2315 -0 0 -0 -19.169 -1.0084 29.634 -17.744 -37.783 -24.772 81.341 -7.6004 17.447 -0 0 -0 -9.909 -21.372 0.23948 33.899 -7.3676 12.383 -3.0091 -9.263 33.778 -17.314 21.189 17.846 -17.314 21.189 17.846 -19.341 5.6722 34.586 27.204 -33.835 1.9464 -1.638 11.331 -8.2041 -7.9558 -2.4842 -8.6451 -0.0052765 0.055804 -0.00045065 -0 0 -0 -19.341 5.6722 34.586 9.015 -27.488 -13.503 -6.1232 21.835 1.1555 6.4432 -12.662 -5.9023 -0.023764 -0.040318 0.021117 -0 0 -0 
-0.070216 92.904 0.21562 -0 0 -0 -20.001 6.4819 35.083 8.8355 2.9023 -1.0554 8.8355 2.9023 -1.0554 7.4172 2.4494 -0.8565 -0 0 -0 -21.419 0.90163 30.253 -22.44 -39.468 -32.141 82.834 -9.7752 18.233 -0 0 -0 -10.721 -21.088 -0.37553 36.52 -8.7032 12.352 -2.4189 -9.0166 30.262 -18.004 21.564 15.777 -18.004 21.564 15.777 -20.001 6.4819 35.083 28.096 -35.003 2.5707 -1.6039 11.387 -7.9343 -8.7183 -2.4092 -9.1629 -0.072521 0.023899 0.018945 -0 0 -0 -20.001 6.4819 35.083 9.1494 -29.337 -14.531 -6.7789 23.763 2.0996 6.281 -13.698 -5.817 -0.0041605 -0.019919 0.0041493 -0 0 -0 
-0.11506 92.678 0.33093 -0 0 -0 -21.02 7.5525 35.737 9.2537 2.9119 -0.76824 9.2537 2.9119 -0.76823 7.7693 2.4549 -0.61373 -0 0 -0 -24.025 2.8732 30.383 -27.185 -40.285 -39.331 83.195 -8.6461 19.005 -0 0 -0 -11.392 -21.216 -0.30218 38.728 -10.264 12.366 -1.8222 -9.1127 27.365 -18.8 21.568 13.834 -18.8 21.568 13.834 -21.02 7.5525 35.737 28.839 -36.633 2.7223 -1.5099 11.332 -7.4968 -9.3289 -2.406 -9.338 -0.017871 0.13258 -0.017915 -0 0 -0 -21.02 7.5525 35.737 9.2559 -31.643 -15.805 -7.4467 25.392 2.8662 6.2585 -14.328 -5.415 -0.039817 -0.014191 0.0091626 -0 0 -0 
-0.16188 92.455 0.42282 -0 0 -0 -22.267 8.8383 36.673 9.8935 3.0175 -0.73608 9.8935 3.0175 -0.73609 8.3066 2.5439 -0.58332 -0 0 -0 -27.298 3.9838 30.051 -30.199 -41.289 -44.429 82.705 -6.1878 19.481 -0 0 -0 -11.937 -22.528 0.33938 40.17 -11.408 12.284 -1.4834 -9.2648 25.422 -19.77 21.021 12.309 -19.77 21.021 12.309 -22.267 8.8383 36.673 29.45 -38.691 3.13 -1.2575 11.089 -7.2063 -10.051 -2.233 -9.7201 0.16949 0.10996 0.006402 -0 0 -0 -22.267 8.8383 36.673 9.2789 -34.293 -17.275 -8.0846 26.822 3.8078 6.077 -14.81 -5.2506 0.019981 0.034942 -0.0068165 -0 0 -0 
-0.20139 92.253 0.44792 -0 0 -0 -23.86 10.266 37.842 10.688 2.9458 -0.44986 10.688 2.9458 -0.44986 8.975 2.4809 -0.34097 -0 0 -0 -30.217 4.2277 28.565 -30.942 -42.777 -44.808 79.309 -4.2983 19.704 -0 0 -0 -12.721 -23.848 0.17092 41.429 -12.049 12.082 -1.8287 -9.3585 24.372 -20.496 20.575 10.95 -20.496 20.575 10.95 -23.86 10.266 37.842 30.351 -41.182 4.4927 -0.85326 10.725 -7.1698 -10.918 -1.5623 -10.619 0.10662 -0.28752 0.011047 -0 0 -0 -23.86 10.266 37.842 8.9457 -37.226 -19.08 -8.5146 28.055 4.3165 6.0814 -15.057 -4.6517 0.044542 0.055378 -0.0047615 -0 0 -0 
-0.22916 92.081 0.38035 -0 0 -0 -25.441 11.514 38.787 11.587 2.607 -0.0057794 11.587 2.607 -0.0057767 9.7315 2.1908 0.030619 -0 0 -0 -31.832 5.1425 26.658 -30.484 -43.954 -42.762 76.085 -3.8216 19.947 -0 0 -0 -13.837 -23.712 0.5386 42.14 -12.919 11.745 -2.3634 -9.5764 24.142 -21.14 20.753 10.306 -21.14 20.753 10.306 -25.441 11.514 38.787 31.161 -43.56 5.3112 -0.31397 10.389 -6.6109 -11.922 -0.54171 -11.355 0.039178 -0.32782 -0.058704 -0 0 -0 -25.441 11.514 38.787 8.7163 -39.92 -20.175 -8.7787 29.12 4.1726 6.1696 -15.197 -3.9511 0.055965 0.080933 0.010272 -0 0 -0 
-0.24401 91.952 0.21935 -0 0 -0 -26.803 12.773 39.617 12.526 2.4748 0.13016 12.526 2.4748 0.13016 10.521 2.0778 0.14577 -0 0 -0 -33.128 6.415 25.337 -30.432 -45.479 -41.802 72.608 -3.2322 20.841 -0 0 -0 -15.288 -24.18 2.2298 42.593 -13.789 11.612 -2.5799 -9.5845 23.314 -22.091 20.804 10.596 -22.091 20.804 10.596 -26.803 12.773 39.617 31.331 -45.718 4.4618 0.056456 9.9433 -5.5407 -12.572 0.41984 -11.133 -0.15712 0.1962 -0.0077238 -0 0 -0 -26.803 12.773 39.617 8.8166 -42.632 -19.767 -9.071 30.251 3.4955 6.2185 -15.398 -3.9107 0.015121 0.051122 0.015551 -0 0 -0 
-0.24057 91.869 -0.017043 -0 0 -0 -27.899 13.982 40.111 13.167 2.5244 0.64513 13.167 2.5244 0.64511 11.061 2.1116 0.58113 -0 0 -0 -34.237 8.7314 25.896 -34.508 -45.979 -46.186 70.374 -2.9782 20.628 -0 0 -0 -16.467 -25.201 2.1726 43.308 -13.353 11.882 -3.0517 -9.4083 22.605 -22.557 20.912 10.708 -22.557 20.912 10.708 -27.899 13.982 40.111 31.294 -47.424 3.5134 0.24476 9.5413 -4.5642 -12.889 1.2669 -10.517 -0.066167 0.23367 -0.033522 -0 0 -0 -27.899 13.982 40.111 9.2939 -45.097 -18.512 -9.5828 31.234 2.9964 6.3396 -15.579 -4.2827 -0.08361 -0.027095 -0.00092032 -0 0 -0 
-0.21274 91.826 -0.29783 -0 0 -0 -28.713 14.941 40.208 13.832 2.6091 1.3087 13.832 2.6091 1.3087 11.621 2.1716 1.1422 -0 0 -0 -35.856 12.498 27.025 -40.719 -45.331 -53.065 69.928 -3.2418 20.592 -0 0 -0 -17.679 -26.198 1.4858 44.289 -11.963 12.526 -3.7345 -9.1728 22.497 -23.097 21.203 10.653 -23.097 21.203 10.653 -28.713 14.941 40.208 31.782 -48.738 4.8502 0.29884 9.4722 -5.0755 -12.953 1.7149 -10.254 0.024385 0.054084 0.020464 -0 0 -0 -28.713 14.941 40.208 9.4636 -47.223 -18.094 -10.1 32.064 3.552 6.3886 -15.577 -4.7577 -0.11198 -0.024846 -0.0055031 -0 0 -0 
-0.16852 91.807 -0.5802 -0 0 -0 -29.372 15.542 40.081 14.4 2.8101 2.0052 14.4 2.8101 2.0052 12.101 2.328 1.7326 -0 0 -0 -37.425 17 27.351 -46.716 -44.303 -60.385 70.804 -3.5859 20.569 -0 0 -0 -18.657 -27.389 1.345 45.152 -10.502 13.658 -4.1169 -9.0018 21.193 -23.336 21.548 10.391 -23.336 21.548 10.391 -29.372 15.542 40.081 32.284 -49.456 5.8585 0.30527 9.3217 -5.1176 -12.927 1.7958 -10.225 -0.0093357 0.08286 0.031396 -0 0 -0 -29.372 15.542 40.081 9.8535 -48.331 -17.477 -10.157 32.205 3.0922 6.7027 -15.345 -4.3625 -0.080663 0.0076418 -0.027087 -0 0 -0 
-0.13757 91.783 -0.81748 -0 0 -0 -30.003 15.992 40.089 14.683 2.9804 2.6518 14.683 2.9804 2.6518 12.342 2.4594 2.2799 -0 0 -0 -37.88 21.372 27.234 -51.853 -43.262 -66.261 72.358 -6.0448 20.227 -0 0 -0 -19.065 -29.02 1.8683 46.32 -8.8027 14.724 -4.415 -8.7759 19.532 -23.034 21.818 10.091 -23.034 21.818 10.091 -30.003 15.992 40.089 32.544 -49.971 5.9914 0.32527 8.8342 -4.7668 -12.934 1.9747 -10.101 -0.052085 -0.019842 0.035434 -0 0 -0 -30.003 15.992 40.089 10.512 -49.233 -16.225 -9.9648 32.245 1.9521 7.0184 -15.123 -3.9946 0.042066 0.077536 -0.029975 -0 0 -0 
-0.16293 91.728 -0.97472 -0 0 -0 -30.627 16.351 40.399 14.785 2.997 3.2648 14.785 2.997 3.2648 12.429 2.4625 2.7957 -0 0 -0 -37.002 25.35 27.013 -55.388 -41.6 -71.303 75.455 -10.295 20.275 -0 0 -0 -19.183 -30.38 2.6451 48.039 -7.1344 15.709 -4.6673 -8.3163 17.621 -22.254 22.123 9.578 -22.254 22.123 9.578 -30.627 16.351 40.399 32.73 -50.596 5.243 0.49741 8.5678 -4.2849 -13.258 1.8134 -9.6722 -0.044964 -0.058473 0.016613 -0 0 -0 -30.627 16.351 40.399 10.973 -50.077 -15.24 -9.8366 32.273 0.8305 7.3263 -15.019 -3.6863 0.12668 0.082248 -0.043807 -0 0 -0 
-0.27355 91.627 -1.0416 -0 0 -0 -31.252 16.654 41.155 14.852 2.8613 3.7254 14.852 2.8613 3.7254 12.487 2.3401 3.1807 -0 0 -0 -35.766 28.817 25.78 -56.803 -40.157 -74.038 79.897 -17.335 20.98 -0 0 -0 -19.351 -31.253 3.8685 50.145 -6.3193 16.026 -4.5545 -7.4989 15.967 -21.433 22.464 8.8107 -21.433 22.464 8.8108 -31.252 16.654 41.155 32.811 -51.386 4.4316 0.66756 8.2676 -4.0038 -13.63 1.6227 -9.4031 -0.070126 0.054828 0.0056418 -0 0 -0 -31.252 16.654 41.155 10.918 -50.942 -15.468 -10.147 32.385 0.75486 7.5004 -15.24 -3.7157 0.099443 0.019951 -0.034227 -0 0 -0 
-0.46328 91.482 -1.0382 -0 0 -0 -31.799 16.907 42.107 14.873 2.6754 3.9553 14.873 2.6754 3.9553 12.505 2.1797 3.3708 -0 0 -0 -34.749 30.792 23.968 -55.553 -40.122 -74.333 84.624 -26.257 22.022 -0 0 -0 -19.334 -31.328 5.5613 52.003 -6.7309 15.804 -3.6204 -6.8302 14.741 -20.862 22.904 7.943 -20.862 22.904 7.943 -31.799 16.907 42.107 32.92 -52.188 4.2649 0.88083 7.9292 -4.1822 -13.991 1.4209 -9.4494 -0.11926 0.11596 0.00086491 -0 0 -0 -31.799 16.907 42.107 10.588 -51.727 -16.341 -10.709 32.664 1.3841 7.5784 -15.662 -4.0801 -0.083117 -0.18798 0.067664 -0 0 -0 
-0.69123 91.313 -1.009 -0 0 -0 -32.265 17.144 42.964 14.73 2.6238 4.0614 14.73 2.6238 4.0614 12.385 2.1352 3.4586 -0 0 -0 -33.508 30.539 22.26 -53.129 -40.499 -73.742 88.518 -34.878 22.857 -0 0 -0 -18.829 -30.953 6.7324 53.312 -8.2009 15.039 -1.8598 -6.6389 14.456 -20.359 23.25 6.7909 -20.359 23.25 6.7909 -32.265 17.144 42.964 33.207 -52.982 5.0176 1.1775 7.6168 -4.4906 -14.282 1.2104 -10.045 -0.12796 0.11203 -0.031821 -0 0 -0 -32.265 17.144 42.964 9.9836 -52.406 -17.276 -10.88 33.075 1.9263 7.4353 -16.14 -4.5177 -0.05747 -0.067341 0.014044 -0 0 -0 
-0.90605 91.152 -1.0106 -0 0 -0 -32.869 17.48 43.514 14.712 2.7189 3.8947 14.712 2.7189 3.8947 12.369 2.2181 3.3201 -0 0 -0 -33.226 28.378 20.714 -50.661 -41.437 -72.291 90.903 -42.465 23.209 -0 0 -0 -18.222 -30.406 7.1808 54.152 -9.799 14.342 -0.72582 -8.1586 15.248 -20.446 23.349 5.7132 -20.446 23.349 5.7132 -32.869 17.48 43.514 34.042 -53.835 6.7783 1.4849 7.3907 -4.6515 -14.353 0.99924 -11.056 -0.086225 -0.0099146 -0.056399 -0 0 -0 -32.869 17.48 43.514 9.7539 -53.148 -17.857 -10.495 33.357 2.6336 6.8435 -16.333 -5.3231 -0.024886 -0.036991 0.0033591 -0 0 -0 
-1.0714 91.033 -1.0956 -0 0 -0 -33.67 18.074 43.701 14.983 2.8419 3.3061 14.983 2.8419 3.3061 12.595 2.3306 2.8285 -0 0 -0 -34.485 25.269 19.215 -48.123 -43.439 -70.262 88.666 -46.51 22.31 -0 0 -0 -17.837 -29.591 7.2013 54.347 -11.24 14.399 0.41931 -10.754 15.874 -21.413 23.129 5.1658 -21.413 23.129 5.1658 -33.67 18.074 43.701 35.397 -54.849 8.84 1.6966 7.3689 -4.381 -14.257 0.82027 -11.982 0.14048 -0.21093 0.010126 -0 0 -0 -33.67 18.074 43.701 9.943 -54.151 -17.94 -10.143 33.29 2.9924 6.4956 -16.001 -5.603 -0.0026798 -0.020155 0.0021423 -0 0 -0 
-1.1637 90.982 -1.3008 -0 0 -0 -34.688 18.994 43.328 15.435 3.0343 2.5243 15.435 3.0343 2.5243 12.973 2.5048 2.1765 -0 0 -0 -36.115 21.664 17.259 -46.199 -45.546 -68.536 84.873 -48.918 20.096 -0 0 -0 -17.998 -28.672 6.7148 54.207 -13.742 14.664 1.2078 -13.144 18.238 -22.972 22.596 5.2022 -22.972 22.596 5.2022 -34.688 18.994 43.328 37.276 -55.731 10.775 1.8404 7.3885 -3.6641 -14.13 0.7307 -12.299 0.34495 -0.27059 0.060957 -0 0 -0 -34.688 18.994 43.328 10.921 -55.403 -17.064 -9.843 32.896 3.2572 6.334 -15.305 -5.5943 -0.035273 0.021331 -0.0069408 -0 0 -0 
